# xmcd
#
# Track frame offsets: 
#        150
#        41317
#        58365
#        71694
#        109771
#        156957
#        164450
#        195936
#        244460
#        259724
#        297232
#
# Disc length: 4478 seconds
#
# Revision: 0
# Processed by: cddbd v1.5.2PL0 Copyright (c) Steve Scherf et al.
# Submitted via: ExactAudioCopy v0.99pb3
#
DISCID=a0117c0b
DTITLE=Terry Callier - Welcome Home
DYEAR=2008
DGENRE=Blues
TTITLE0=When The Music Is Gone
TTITLE1=And I Love Her
TTITLE2=John Coltrane Story 1 (Spoken Word)
TTITLE3=When My Lady Danced
TTITLE4=Fix The Blame
TTITLE5=Band Introducion (Spoken Word)
TTITLE6=C'est La Vie
TTITLE7=What About Me (What You Gonna Do About Me)
TTITLE8=John Coltrane Story 2 (Spoken Word)
TTITLE9=Timepiece
TTITLE10=Nobody But Yourself To Blame
EXTD=
EXTT0=
EXTT1=
EXTT2=
EXTT3=
EXTT4=
EXTT5=
EXTT6=
EXTT7=
EXTT8=
EXTT9=
EXTT10=
PLAYORDER=
